<svg width="24" height="24" viewBox="0 0 24 24" fill="none" xmlns="http://www.w3.org/2000/svg">
<path fill-rule="evenodd" clip-rule="evenodd" d="M12 24C18.6274 24 24 18.6274 24 12C24 5.37262 18.6274 0 12 0C5.37262 0 0 5.37262 0 12C0 18.6274 5.37262 24 12 24Z" fill="#D80027"/>
<path d="M17.904 11.5964C17.7552 12.0039 16.8987 12.2336 16.7988 12.3175C16.8201 12.3195 16.8413 12.3175 16.8647 12.3175C16.9242 12.3055 16.9943 12.2875 17.0687 12.2635C17.3004 12.1776 17.5746 12.0199 17.7212 11.9899C17.7403 11.9799 17.7595 11.9679 17.7743 11.9579L17.8402 11.914L17.8275 12.0239C17.8381 12.0678 17.8126 12.1517 17.7318 12.2955C17.6404 12.655 16.667 12.7649 16.7095 12.7728C16.8881 12.7928 17.2175 12.683 17.396 12.685C17.4003 12.685 17.4024 12.685 17.4066 12.683C17.5108 12.653 17.515 12.653 17.515 12.693C17.515 12.7029 17.515 12.7149 17.5108 12.7269C17.5363 12.7728 17.5044 12.8587 17.3833 13.0165C17.2324 13.2422 16.1463 13.3421 16.9603 13.2762C16.971 13.2782 16.9795 13.2822 16.9901 13.2842C17.0177 13.2802 17.0411 13.2762 17.0581 13.2722L17.1367 13.2502L17.124 13.3401C17.124 13.3401 17.1219 13.3481 17.1197 13.3541C17.1452 13.4 17.1112 13.4579 17.0432 13.5178C16.9986 13.5758 16.9412 13.6237 16.8732 13.6557C16.8264 13.6776 16.7754 13.6936 16.7244 13.7096C16.6011 13.7635 16.48 13.7995 16.4099 13.7955C16.4503 13.8054 16.4821 13.8174 16.5076 13.8294L16.633 13.8574L16.6182 13.9233C16.599 14.0152 16.5459 14.0651 16.3992 14.125C16.3631 14.141 16.3185 14.153 16.2717 14.161C16.1697 14.1929 16.0613 14.2109 15.9614 14.2089C16.0061 14.2269 16.0358 14.2449 16.0507 14.2648C16.0571 14.2648 16.0613 14.2668 16.0656 14.2688L16.1315 14.2828L16.0486 14.3627C16.0486 14.3627 16.0316 14.3767 16.0231 14.3847C15.9976 14.4086 15.9614 14.4326 15.9168 14.4526C15.8955 14.4626 15.8743 14.4725 15.8573 14.4785C15.8573 14.4785 15.8552 14.4785 15.853 14.4785C15.6533 14.5584 15.3663 14.5984 15.2048 14.5265C15.2133 14.5385 15.2303 14.5544 15.2601 14.5764C15.326 14.6283 15.3345 14.6423 15.3089 14.6703C15.2962 14.6843 15.2707 14.6962 15.2409 14.7082C15.1878 14.7562 15.0603 14.7662 14.9136 14.7522C14.7989 14.7522 14.6905 14.7362 14.6395 14.7022C14.6373 14.7022 14.6352 14.7002 14.6331 14.6982C14.5715 14.6803 14.5141 14.6603 14.4673 14.6363C14.4907 14.6723 14.5013 14.7042 14.4971 14.7302C14.5226 14.7881 14.4843 14.8101 14.3717 14.8241C14.3717 14.8241 14.3632 14.8241 14.3589 14.8241C14.3589 14.8241 14.3568 14.8241 14.3547 14.8241C14.3313 14.8281 14.3037 14.8301 14.276 14.8281C14.2697 14.8281 14.2654 14.8281 14.259 14.8281C14.14 14.8201 14.0125 14.7701 13.9594 14.6763C13.9721 14.7282 13.9955 14.7741 14.0252 14.8141C14.0274 14.8181 14.0295 14.8201 14.0316 14.8241C14.1761 15.0078 14.4609 15.0737 14.6352 15.1676C14.6543 15.1696 14.6735 15.1736 14.6905 15.1736C14.7649 15.1736 14.7819 15.1996 14.75 15.2595C14.7755 15.2934 14.7882 15.3314 14.784 15.3773C15.005 15.3813 15.073 15.4193 15.0879 15.4772C15.1304 15.4912 15.1559 15.5032 15.1602 15.5111C15.1644 15.5251 15.1325 15.5571 15.0879 15.583C15.0837 15.585 15.0794 15.589 15.0752 15.591C15.0645 15.631 15.056 15.6709 15.0667 15.7109C15.1495 15.7408 15.1857 15.7708 15.2027 15.7988C15.2112 15.8027 15.2218 15.8067 15.2282 15.8087C15.3004 15.8287 15.2898 15.8567 15.2069 15.8727C15.1984 15.9046 15.1836 15.9366 15.1942 15.9705C15.2346 16.0025 15.2877 16.0444 15.3472 16.0884C15.3578 16.0924 15.3685 16.0984 15.3812 16.1023C15.4025 16.1223 15.4195 16.1383 15.4386 16.1543C15.4896 16.1922 15.5364 16.2222 15.5725 16.2462C15.6809 16.2941 15.7043 16.2102 15.632 16.0864C15.6192 16.0684 15.6065 16.0504 15.5937 16.0384C15.5725 16.0145 15.5512 15.9865 15.5364 15.9605C15.5279 15.9506 15.5194 15.9406 15.5087 15.9306C15.5087 15.9166 15.5087 15.9026 15.5087 15.8886C15.5002 15.8307 15.5087 15.7668 15.53 15.7109C15.5831 15.5032 15.7213 15.3314 15.8934 15.1876C15.9657 15.1037 16.1059 14.9958 16.2016 14.9559C16.225 14.9459 16.259 14.9379 16.2951 14.9299C16.4332 14.858 16.5735 14.8001 16.6947 14.7522C16.6649 14.7502 16.6437 14.7442 16.6224 14.7382C16.5884 14.7422 16.5671 14.7382 16.5586 14.7162C16.5586 14.7142 16.5586 14.7082 16.5586 14.7022C16.5183 14.6563 16.548 14.5864 16.599 14.5285C16.6118 14.4925 16.6245 14.4666 16.633 14.4666C16.6352 14.4666 16.6437 14.4706 16.6564 14.4745C16.7032 14.4366 16.7542 14.4126 16.7776 14.4226C16.7776 14.3887 16.7839 14.3587 16.7903 14.3527C16.7967 14.3467 16.8413 14.3527 16.8923 14.3667C16.9391 14.3587 16.9837 14.3747 17.0177 14.4046C17.0368 14.4126 17.0538 14.4186 17.0602 14.4246C17.0666 14.4306 17.0666 14.4406 17.0645 14.4546C17.09 14.4905 17.1091 14.5365 17.1176 14.5824C17.1516 14.5944 17.1495 14.6283 17.1219 14.7162C17.1219 14.7182 17.1219 14.7202 17.1197 14.7222C17.1027 14.8081 17.0453 14.878 16.937 14.884C17.022 14.9659 17.1134 15.0677 17.1941 15.1836C17.2579 15.2495 17.3089 15.3314 17.3386 15.4193C17.4385 15.609 17.5044 15.8147 17.4938 16.0025C17.4959 16.0085 17.5002 16.0145 17.5023 16.0225C17.5363 16.1243 17.4959 16.2382 17.4066 16.3001C17.4003 16.3041 17.3939 16.3081 17.3854 16.3121C17.3811 16.3181 17.379 16.324 17.3748 16.33C17.3471 16.34 17.3195 16.352 17.294 16.362C17.226 16.394 17.1346 16.4319 17.022 16.4738C16.7095 16.6037 16.3886 16.7335 16.0592 16.7794C15.9678 16.8014 15.9083 16.8074 15.8509 16.8074C15.802 16.8074 15.7574 16.8014 15.7128 16.7914C15.6936 16.7914 15.6745 16.7914 15.6554 16.7894C15.6448 16.7794 15.6299 16.7714 15.6192 16.7615C15.5576 16.7355 15.5002 16.6995 15.4386 16.6496C15.4088 16.6236 15.3642 16.5977 15.3132 16.5697C15.0837 16.4619 14.8414 16.4059 14.631 16.374C14.631 16.374 14.631 16.376 14.631 16.378C14.6203 16.4559 14.5396 16.4479 14.4269 16.36C14.4206 16.356 14.4142 16.35 14.4078 16.346C14.4036 16.346 14.3972 16.346 14.3929 16.346C14.3738 16.326 14.3525 16.3101 14.3334 16.2921C14.2548 16.2362 14.174 16.1842 14.1018 16.1443C14.0146 16.1103 13.9296 16.0983 13.851 16.1043C13.8488 16.1063 13.8467 16.1083 13.8446 16.1123C13.8148 16.1443 13.7915 16.1782 13.7915 16.1882C13.7915 16.1962 13.7723 16.2042 13.7468 16.2042C13.7341 16.2042 13.7107 16.1862 13.6788 16.1563C13.6724 16.1603 13.6661 16.1623 13.6597 16.1663C13.4025 15.9206 13.037 15.2575 12.7586 15.2974C12.8733 15.4233 12.9541 15.5571 13.0157 15.6949C13.122 15.8207 13.1624 15.9186 13.1857 16.0944C13.1921 16.1443 13.1921 16.1782 13.1857 16.2062C13.2091 16.2921 13.2325 16.376 13.2601 16.4619C13.2878 16.4918 13.3133 16.5557 13.3218 16.6216C13.3218 16.6376 13.3303 16.6536 13.3324 16.6716C13.3685 16.7615 13.411 16.8493 13.4642 16.9372C13.6087 17.0431 13.8191 17.1849 13.9381 17.3127C13.9551 17.3207 13.9721 17.3307 13.987 17.3347C14.1039 17.3766 14.1145 17.4385 14.021 17.5164C13.9934 17.5823 13.8807 17.6303 13.6299 17.6423C13.6661 17.6982 13.6894 17.7701 13.6958 17.838C13.7086 17.8779 13.7192 17.9159 13.7192 17.9419C13.7192 18.0098 13.6979 18.0377 13.6321 18.0377C13.5747 18.0797 13.4769 18.0777 13.3218 17.9918C13.3643 18.1676 13.3345 18.2375 13.275 18.2554C13.275 18.2594 13.2729 18.2654 13.2708 18.2654C13.2601 18.2754 13.2325 18.2754 13.1581 18.2534C13.02 18.2255 12.8499 18.1456 12.8032 18.2454C12.8032 18.2594 12.8032 18.2734 12.8032 18.2894C12.8032 18.3433 12.8053 18.3793 12.8032 18.4092C12.8032 18.4192 12.8032 18.4272 12.8074 18.4372C12.7734 18.591 12.716 18.6249 12.6544 18.613C12.6183 18.6249 12.5843 18.605 12.5375 18.555C12.4738 18.5091 12.41 18.4572 12.3675 18.4711C12.3675 18.4751 12.3654 18.4791 12.3632 18.4811C12.3505 18.5371 12.3314 18.591 12.3101 18.6429C12.3101 18.6569 12.3101 18.6669 12.3101 18.6849C12.24 18.7987 12.0572 19.1722 11.919 18.9066C11.8808 18.8666 11.851 18.8167 11.8255 18.7647C11.8064 18.7308 11.7894 18.6908 11.7703 18.6449C11.7235 18.5351 11.681 18.4452 11.6087 18.4691C11.5896 18.4891 11.5705 18.5131 11.5492 18.5371C11.4897 18.611 11.4685 18.6349 11.443 18.6309C11.4408 18.6349 11.4366 18.6389 11.4345 18.6429C11.4323 18.6369 11.4302 18.6309 11.4281 18.6249C11.4217 18.6229 11.4175 18.6209 11.4111 18.6169C11.3856 18.601 11.341 18.551 11.3112 18.5051C11.2687 18.4372 11.2602 18.3972 11.2666 18.2814C11.2262 18.2255 11.1816 18.1955 11.1114 18.1895C11.0817 18.1995 11.0477 18.2115 11.0137 18.2235C10.8798 18.2694 10.8224 18.2834 10.799 18.2474C10.7947 18.2474 10.7926 18.2474 10.7905 18.2494C10.7905 18.2454 10.7905 18.2415 10.7947 18.2375C10.7841 18.2115 10.7862 18.1656 10.7884 18.0937C10.7884 18.0797 10.7884 18.0697 10.7884 18.0577C10.7586 18.0198 10.7012 18.0078 10.6396 18.0018C10.6183 18.0078 10.595 18.0118 10.5737 18.0158C10.4504 18.0437 10.4079 18.0437 10.3824 18.0237C10.3633 18.0098 10.3569 17.9858 10.3548 17.9578C10.3144 17.9219 10.325 17.848 10.4419 17.6942C10.3909 17.6682 10.1359 17.5903 10.036 17.4925C10.036 17.4925 10.036 17.4905 10.0339 17.4885C10.0254 17.4805 10.019 17.4745 10.0147 17.4665C9.99987 17.4485 9.98712 17.4325 9.98712 17.4166C9.98712 17.4126 9.99137 17.4086 9.99562 17.4026C10.002 17.3566 10.0594 17.3107 10.1954 17.2648C10.4377 17.133 10.6141 16.9352 10.731 16.7095C10.7331 16.7015 10.7374 16.6935 10.7395 16.6856C10.765 16.5697 10.7841 16.5218 10.833 16.4559C10.8798 16.2981 10.9031 16.1363 10.8989 15.9785C10.9053 15.9505 10.9244 15.9106 10.952 15.8647C10.9775 15.8027 11.0137 15.7488 11.0562 15.7029C11.2496 15.4173 11.4982 15.0917 11.0817 15.4013C11.0625 15.4153 11.0413 15.4313 11.0222 15.4492C10.9882 15.4852 10.9499 15.5271 10.9074 15.5751C10.7522 15.7648 10.6077 16.0145 10.4504 16.1183C10.4037 16.1683 10.3633 16.2042 10.3506 16.2042C10.3357 16.2042 10.3102 16.1882 10.2889 16.1643C10.2379 16.1603 10.1848 16.1383 10.1274 16.0884C9.96162 16.1942 9.80859 16.3021 9.66407 16.362C9.53655 16.4439 9.47704 16.4579 9.45579 16.4059C9.3984 16.4059 9.34314 16.392 9.29001 16.358C9.14974 16.4439 8.92658 16.5997 8.75443 16.7714C8.7438 16.7854 8.73105 16.8014 8.72255 16.8134C8.69067 16.8613 8.62478 16.9472 8.5759 17.0011C8.5674 17.0111 8.5589 17.0211 8.55252 17.0291C8.48239 17.1629 8.47388 17.2907 8.5844 17.3906C8.60778 17.4046 8.63116 17.4166 8.65454 17.4286C8.70342 17.4525 8.7438 17.4765 8.76718 17.4925C8.78206 17.4985 8.79268 17.5044 8.80969 17.5084C8.79906 17.5124 8.78843 17.5164 8.77993 17.5204C8.76718 17.5364 8.73105 17.5584 8.68217 17.5784C8.60353 17.6423 8.56315 17.7222 8.51427 17.7801C8.51427 17.846 8.49939 17.862 8.43988 17.838C8.38675 17.86 8.31236 17.856 8.19547 17.7981C8.19122 17.7981 8.18696 17.7961 8.18484 17.7961C8.10195 17.822 8.09133 17.81 8.0977 17.6742C8.07645 17.5724 8.0807 17.4345 8.00631 17.3686C7.99356 17.3686 7.98081 17.3706 7.96593 17.3726C7.91705 17.3786 7.85116 17.3786 7.82141 17.3726C7.80441 17.3686 7.7874 17.3606 7.7704 17.3507C7.76615 17.3507 7.76402 17.3507 7.75977 17.3507C7.68751 17.2927 7.60037 17.2128 7.52174 17.123C7.49836 17.111 7.47498 17.097 7.45798 17.081C7.41334 17.0411 7.39847 17.0151 7.39847 16.9652C7.34746 16.8873 7.30708 16.8054 7.28583 16.7255C7.2667 16.6955 7.2582 16.6676 7.2582 16.6216C7.2582 16.5577 7.27945 16.4998 7.3177 16.4499C7.35596 16.39 7.41334 16.334 7.50686 16.2861C7.4686 16.2521 7.43672 16.2122 7.40697 16.1742C7.40272 16.1683 7.39847 16.1623 7.39209 16.1563C7.38997 16.1523 7.38784 16.1483 7.38572 16.1463C7.35809 16.1063 7.33258 16.0604 7.31133 16.0085C7.23482 15.8307 7.20719 15.633 7.16043 15.4512C7.0988 15.4113 7.06904 15.3394 7.07967 15.2435C7.07967 15.2315 7.07967 15.2235 7.07967 15.2155C7.05629 15.1676 7.03079 15.1197 6.99678 15.0777C6.45057 14.6164 6.77575 13.8174 6.3358 13.3181C6.20616 13.3061 6.17215 13.2602 6.17853 13.2063C6.16153 13.1843 6.1679 13.1643 6.19553 13.1423C6.24016 13.0425 6.33155 12.9446 6.16578 12.9766L6.11264 13.0105L6.10414 12.9906C6.10414 12.9906 6.09989 12.9906 6.09777 12.9906C6 12.8967 5.98937 12.8348 6.01063 12.7848C6.00425 12.7669 6 12.7529 6 12.7489C6 12.7409 6.02125 12.7309 6.05313 12.7249C6.08501 12.687 6.12539 12.651 6.13815 12.6071C6.13815 12.6071 6.13815 12.6071 6.13815 12.6051C6.09564 12.5412 6.08926 12.5092 6.11689 12.4832C6.11477 12.4792 6.11264 12.4752 6.11052 12.4693C6.12114 12.4653 6.13177 12.4653 6.14452 12.4633C6.16153 12.4553 6.17853 12.4473 6.20403 12.4373C6.26354 12.4153 6.3188 12.3934 6.32518 12.3914C6.33368 12.3874 6.34643 12.4273 6.35493 12.4792C6.40381 12.4932 6.4527 12.5152 6.5037 12.5392C6.54621 12.5192 6.55259 12.5252 6.56321 12.5691C6.6716 12.625 6.7885 12.689 6.92239 12.7309C7.02653 12.7509 7.13918 12.7669 7.23694 12.7788C7.2667 12.7788 7.29858 12.7768 7.33258 12.7728C7.63225 12.7509 6.54621 12.7009 6.48245 12.4153C6.34005 12.2915 6.26779 12.1197 6.28479 12.0239C6.27204 11.912 6.27417 11.908 6.31455 11.942C6.3188 11.946 6.3273 11.952 6.3358 11.9559C6.38681 11.94 6.4782 11.9719 6.60997 12.0818C6.8225 12.2316 7.75127 12.4233 7.04779 12.1976C6.72686 12.1397 6.14877 11.6803 6.13815 11.4147C6.10627 11.3068 6.10414 11.2829 6.11689 11.2729C6.12114 11.2709 6.14665 11.2829 6.18278 11.3028C6.18703 11.2988 6.18915 11.2948 6.19341 11.2908C6.37831 11.4706 7.27307 11.884 6.6716 11.5265C6.44207 11.4307 6.09564 10.8654 6.16365 10.6837C6.16153 10.6257 6.16365 10.5858 6.17428 10.5858C6.17853 10.5858 6.20191 10.6038 6.23166 10.6297C6.23804 10.6297 6.24441 10.6257 6.25291 10.6257C6.41656 10.8455 7.13493 11.3807 7.06054 11.2509C6.59722 10.9233 6.20191 10.3841 6.27629 9.82283C6.27629 9.77889 6.28267 9.74893 6.28904 9.74294C6.28904 9.73895 6.28904 9.73295 6.2933 9.72896C6.3018 9.73895 6.30817 9.74893 6.31667 9.76092C6.33155 9.7769 6.35068 9.80286 6.37406 9.83881C6.58234 10.1304 6.831 10.5758 7.01803 10.6457C6.67586 10.2243 6.40381 9.62909 6.55046 9.09981C6.55046 9.09981 6.55046 9.09781 6.55046 9.09582C6.55471 9.07984 6.56109 9.06186 6.56534 9.04588C6.56534 9.04189 6.56746 9.03789 6.56959 9.0339C6.59084 8.97198 6.61847 8.91007 6.65248 8.85015C6.65248 8.85214 6.65248 8.85414 6.6546 8.85614L6.6631 8.84016L6.71624 9.00993C6.87351 9.42138 7.03079 9.95465 7.2582 10.1803C6.96703 9.58316 6.87351 8.89009 7.02228 8.24896C7.04141 8.20702 7.05841 8.17306 7.07329 8.1471C7.1158 8.05522 7.16043 7.98931 7.17531 8.00329C7.18168 8.00928 7.17106 8.03325 7.1498 8.05322C7.14555 8.05722 7.1413 8.06521 7.13705 8.0712C7.23907 8.02526 7.24969 8.46467 7.30708 8.79622C7.33258 8.89009 7.36234 8.98796 7.39634 9.08982C7.40272 9.09981 7.40909 9.1078 7.41547 9.11379C7.52386 9.44734 7.62163 9.56918 7.47498 9.15374C7.4686 9.08583 7.46223 9.01592 7.45585 8.94402V8.94003C7.4176 8.50262 7.41334 8.03125 7.65563 7.65776C7.69814 7.58586 7.7364 7.53193 7.75765 7.52594C7.76615 7.51595 7.77465 7.50397 7.78528 7.49398C7.83416 7.98731 7.82353 8.49862 8.00419 8.96799C8.00844 8.97398 8.01269 8.98197 8.01694 8.98796C8.01906 8.98796 8.02331 8.98796 8.02544 8.98796C8.06795 8.97598 8.07007 8.97997 8.11258 9.16173C8.2486 9.44135 8.34424 9.77689 8.53339 10.0505C8.55252 10.0745 8.5759 10.1025 8.59928 10.1364C8.62691 10.1704 8.65454 10.2043 8.68642 10.2343C8.7098 10.2063 8.73105 10.1883 8.7523 10.1764C8.77143 10.1304 8.79694 10.0925 8.80756 10.0905C8.81819 10.0905 8.85007 10.1324 8.88407 10.1883C8.99459 10.2682 9.10511 10.4919 9.22625 10.6817C9.28151 10.7456 9.34527 10.8195 9.42603 10.9094C9.43453 10.9174 9.43878 10.9253 9.44729 10.9333C9.45579 10.9393 9.46429 10.9453 9.47492 10.9513C9.64707 11.0911 9.68957 11.2409 9.66407 11.3847C9.66407 11.5225 9.61944 11.6144 9.50254 11.7043C9.42178 11.8081 9.32189 11.904 9.23263 11.9839C9.29001 12.1776 9.47492 12.2036 9.66407 12.2316C9.77884 12.2396 9.82559 12.2476 9.85535 12.2695C9.97012 12.3015 10.07 12.3594 10.1253 12.4912C10.2315 12.2196 9.99562 11.9559 9.96587 11.7283C9.94461 11.6803 9.94674 11.6623 9.96587 11.6404C9.97862 11.5505 10.036 11.4686 10.1784 11.3947C10.2018 11.3348 10.308 11.2389 10.4249 11.1371C10.4738 11.0831 10.5121 11.0412 10.5248 11.0232C10.5546 10.9893 10.5801 10.9753 10.6056 10.9753C10.7799 10.8135 10.8883 10.6737 10.6353 10.6717C10.6311 10.6617 10.629 10.6497 10.629 10.6357C10.629 10.6317 10.629 10.6257 10.629 10.6218C10.629 10.4799 10.7289 10.1823 10.5992 10.1803C10.5695 10.2023 10.527 10.2203 10.5057 10.2203C10.5015 10.2203 10.4972 10.2203 10.4908 10.2203C10.4823 10.2243 10.4759 10.2283 10.4653 10.2343C10.4653 10.2203 10.4611 10.2103 10.4611 10.1963C10.4504 10.1764 10.4398 10.1384 10.4271 10.0705C10.4186 10.0286 10.3867 9.95865 10.3548 9.91271C10.3421 9.89274 10.3293 9.87876 10.3208 9.86877C10.3102 9.86078 10.2974 9.85479 10.2847 9.8488C10.2783 9.8488 10.2698 9.85279 10.2613 9.86078C10.2379 9.87876 10.1635 9.88874 10.053 9.88874C9.84897 9.88874 9.76609 9.85479 9.62794 9.71498L9.53655 9.6231L9.3644 9.66704C9.16462 9.71897 8.94358 9.71298 8.80969 9.65306C8.63754 9.57716 8.58865 9.35347 8.70767 9.17171C8.7438 9.11379 8.75868 9.1058 8.77356 9.12977C8.78418 9.14575 8.79481 9.1817 8.79481 9.20966C8.79481 9.29155 8.85644 9.37743 8.93933 9.41339C9.03922 9.45733 9.12211 9.45733 9.26026 9.41339C9.33889 9.38742 9.42391 9.38143 9.57056 9.38742L9.77459 9.39741L9.72358 9.35546C9.71083 9.34947 9.7002 9.34348 9.6832 9.33749C9.67895 9.3295 9.67257 9.32351 9.66832 9.31552C9.57056 9.24961 9.44304 9.20567 9.37503 9.22165C9.34102 9.22963 9.28364 9.26559 9.24538 9.29954C9.18162 9.35946 9.15187 9.35946 9.13274 9.29555C9.09448 9.28955 9.08811 9.23563 9.13274 9.06985C9.18375 8.91206 9.25176 8.8821 9.34952 8.87212C9.3559 8.87212 9.36015 8.86812 9.36652 8.86812C9.43241 8.85414 9.47917 8.85015 9.53442 8.85814C9.58756 8.85214 9.64707 8.83816 9.71295 8.8142C9.75546 8.73231 9.8511 8.68237 9.97649 8.67039C9.98074 8.6664 9.98712 8.6644 9.99137 8.6604C10.002 8.6624 10.0169 8.6664 10.0318 8.67039C10.1486 8.66839 10.2847 8.69436 10.4228 8.75028C10.561 8.77225 10.7034 8.78623 10.8202 8.78024C10.9159 8.75627 11.0137 8.71433 11.0519 8.68038C11.0625 8.65441 11.0647 8.62246 11.054 8.58451C11.0349 8.55055 11.0052 8.5186 10.9711 8.50262C10.9116 8.47665 10.901 8.42672 10.9393 8.38677C10.935 8.38278 10.9329 8.37878 10.9286 8.37279C10.9286 8.24097 10.8139 8.17107 10.6927 8.10316C10.6821 8.10316 10.6694 8.09916 10.6587 8.09916C10.629 8.09916 10.5758 8.07519 10.5397 8.04723C10.4951 8.01328 10.4823 7.9973 10.4823 7.95735C10.4228 7.89344 10.3931 7.81155 10.4249 7.69171C10.4249 7.67374 10.4249 7.65776 10.4249 7.63978C10.3888 7.57587 10.4016 7.51196 10.4504 7.49398C10.4781 7.4061 10.5291 7.32421 10.595 7.25231C10.595 7.22634 10.6056 7.19838 10.6162 7.19239C10.6268 7.1864 10.6311 7.20038 10.6247 7.22235C10.6417 7.20637 10.6566 7.19039 10.6736 7.17641C10.6609 7.17641 10.6672 7.17242 10.6864 7.16443C10.7777 7.08853 10.884 7.02661 10.9967 6.97668C11.0052 6.9587 11.02 6.94273 11.0307 6.94273C11.0413 6.94273 11.0392 6.95071 11.0349 6.9607C11.1497 6.91676 11.2687 6.8868 11.3813 6.87482C11.3962 6.87482 11.4068 6.87482 11.4196 6.87482C11.4791 6.85884 11.5301 6.84286 11.5514 6.83487C11.5832 6.81889 11.6321 6.80291 11.6746 6.79093C11.7129 6.75098 11.7363 6.70105 11.7533 6.64713C11.7511 6.63514 11.7469 6.62316 11.7448 6.60918C11.732 6.53128 11.7618 6.46537 11.8298 6.41344C11.851 6.3695 11.8787 6.32955 11.919 6.2956C11.9148 6.29161 11.9127 6.28961 11.9084 6.28561C11.902 6.28561 11.8999 6.28561 11.8914 6.28561C11.8362 6.2956 11.8234 6.29161 11.8234 6.25965C11.8234 6.24167 11.8298 6.23368 11.8489 6.22969C11.7745 6.13781 11.8383 6.0759 11.9382 6.04993C11.9382 6.00599 11.9509 6 12.0232 6C12.0699 6 12.121 6.00799 12.138 6.01798C12.1486 6.02397 12.1528 6.03595 12.1571 6.04993C12.2102 6.06391 12.2506 6.09188 12.2655 6.13182C12.274 6.1478 12.2761 6.18375 12.2697 6.2197C12.2591 6.27363 12.2506 6.28761 12.2208 6.28561C12.2166 6.28961 12.2145 6.2956 12.2123 6.2996C12.2038 6.30958 12.2272 6.35752 12.2548 6.41943C12.2591 6.42343 12.2633 6.42742 12.2676 6.43341C12.3144 6.48734 12.325 6.5153 12.3186 6.57922C12.3399 6.64713 12.3462 6.71304 12.3186 6.75698C12.546 6.83687 12.8117 6.88281 13.0412 6.96869C13.037 6.9647 13.0348 6.9607 13.0285 6.9587C13.0051 6.95071 13.0051 6.94672 13.0285 6.94672C13.0433 6.94672 13.0625 6.9627 13.0774 6.98267C13.1921 7.02861 13.2984 7.08453 13.3855 7.16243C13.428 7.17042 13.4748 7.22235 13.4769 7.2603C13.5173 7.31422 13.5534 7.37814 13.5768 7.45004C13.5917 7.46802 13.6087 7.482 13.6214 7.49198C13.6533 7.51395 13.6512 7.51595 13.6108 7.50996C13.6236 7.53193 13.6342 7.5539 13.6406 7.57587C13.6703 7.53792 13.6703 7.53792 13.6703 7.58186C13.6703 7.60183 13.6639 7.62181 13.6533 7.63179C13.6682 7.72567 13.6427 7.81954 13.5896 7.90742C13.5938 7.9234 13.5981 7.93938 13.5981 7.94937C13.6002 7.99131 13.5024 8.0712 13.4323 8.09517C13.3324 8.18704 13.2134 8.26294 13.105 8.31088C13.122 8.33085 13.1262 8.35282 13.1262 8.37679C13.1262 8.37679 13.1262 8.37878 13.1262 8.38078C13.1794 8.43471 13.173 8.46667 13.105 8.49063C13.0944 8.49463 13.0837 8.50262 13.0752 8.51061C13.0433 8.56453 13.0072 8.61646 13.0051 8.6644C13.0072 8.72032 13.1815 8.79422 13.3451 8.8082C13.4578 8.81819 13.4982 8.8102 13.6002 8.76426C13.7405 8.70035 13.9679 8.6604 14.0933 8.68038C14.2038 8.69636 14.2697 8.7383 14.327 8.82618C14.3717 8.89209 14.3781 8.89609 14.4588 8.87811C14.5736 8.85214 14.7245 8.87411 14.7967 8.92804C14.835 8.956 14.8669 8.99994 14.8881 9.05187C14.8988 9.07185 14.9051 9.09382 14.9094 9.11779C14.9179 9.14775 14.9221 9.1797 14.9221 9.21166C14.9221 9.38343 14.886 9.41139 14.7946 9.30753C14.6884 9.18769 14.5183 9.20766 14.3207 9.35746L14.2548 9.40739L14.4609 9.39741C14.6161 9.38942 14.6926 9.39541 14.7755 9.42138C14.9094 9.46532 14.9923 9.46532 15.0922 9.42537C15.1878 9.38742 15.2409 9.31352 15.2579 9.19968C15.2686 9.12378 15.2749 9.11579 15.3047 9.13976C15.4003 9.21366 15.428 9.43735 15.3578 9.5532C15.3366 9.58915 15.2792 9.63509 15.2324 9.65706C15.1262 9.70699 14.8796 9.72696 14.767 9.697C14.4886 9.6231 14.5205 9.61911 14.3887 9.74294C14.3015 9.82683 14.2442 9.86278 14.1655 9.88075C14.021 9.91471 13.8977 9.91271 13.8191 9.87476C13.8021 9.86677 13.7872 9.86078 13.7745 9.85679C13.7426 9.86677 13.7192 9.88075 13.7064 9.89873C13.7064 9.89873 13.7064 9.90272 13.7043 9.90272C13.6979 9.91271 13.6958 9.9247 13.6958 9.93868C13.6873 10.0505 13.6533 10.1104 13.6129 10.1464C13.5981 10.2283 13.5598 10.2443 13.4875 10.2023C13.4365 10.2163 13.3919 10.2323 13.3791 10.2882C13.3791 10.3182 13.3791 10.3501 13.3834 10.3861C13.3898 10.418 13.4004 10.456 13.4174 10.5039C13.4557 10.5778 13.4557 10.6178 13.4387 10.6397C13.4387 10.6477 13.4344 10.6517 13.4259 10.6537C13.3834 10.6837 13.2984 10.6737 13.2601 10.7016L13.2644 10.7436C13.2686 10.7795 13.2771 10.8175 13.292 10.8514C13.3026 10.8674 13.3133 10.8834 13.3281 10.9014C13.36 10.9293 13.3962 10.9593 13.4365 10.9873C13.462 10.9873 13.5003 11.0172 13.5917 11.1051C13.7872 11.2529 13.9934 11.4207 14.0826 11.6064C14.0869 11.6124 14.0933 11.6184 14.0996 11.6224L14.1761 11.7003L14.1251 11.7862C14.1251 11.888 14.0848 11.9939 13.9827 12.1037C13.9657 12.1557 13.9551 12.2016 13.9445 12.2436C13.9402 12.2695 13.936 12.2955 13.9339 12.3254C13.9254 12.4093 13.9211 12.4513 13.9254 12.4732C13.9402 12.5032 13.9742 12.5012 14.0231 12.4772C14.0699 12.4493 14.1273 12.3954 14.1868 12.3155C14.2314 12.2555 14.2463 12.2516 14.4524 12.2376C14.5927 12.2276 14.6841 12.2116 14.7457 12.1816C14.7564 12.1757 14.767 12.1697 14.7776 12.1637C14.8095 12.1417 14.8329 12.1137 14.8499 12.0778C14.8775 12.0139 14.8775 11.9939 14.8499 11.928C14.8307 11.884 14.7861 11.8361 14.7436 11.8161C14.6947 11.7902 14.6352 11.7502 14.5842 11.7063C14.5693 11.7003 14.5566 11.6963 14.5417 11.6903C14.529 11.6723 14.5205 11.6544 14.5098 11.6364C14.4886 11.6124 14.4694 11.5904 14.4609 11.5725C14.4206 11.4966 14.4184 11.2749 14.4609 11.183C14.4694 11.165 14.4886 11.1351 14.5119 11.1011C14.6352 10.8774 14.8711 10.6657 15.0497 10.444C15.1219 10.3421 15.1772 10.2562 15.2069 10.1903C15.2112 10.1823 15.2154 10.1744 15.2197 10.1664C15.2282 10.1444 15.2367 10.1244 15.2431 10.1025C15.2473 10.1045 15.2494 10.1045 15.2516 10.1084C15.2579 10.0985 15.2643 10.0905 15.2686 10.0885C15.2771 10.0845 15.2962 10.1064 15.3153 10.1424C15.4067 10.1724 15.4875 10.1304 15.5597 10.0465C15.581 10.0186 15.6001 9.9926 15.6171 9.97063C15.768 9.73895 15.8849 9.33749 15.9976 9.08982C15.9976 9.08383 16.0018 9.07984 16.0018 9.07385C16.0167 9.01592 16.0273 8.99395 16.0464 8.99196C16.0507 8.98596 16.0528 8.97797 16.0571 8.97398C16.2909 8.53657 16.2398 7.99131 16.3036 7.50397C16.3121 7.51196 16.3185 7.52194 16.327 7.53193C16.3397 7.53193 16.3589 7.5519 16.3844 7.59385C16.4035 7.62381 16.4077 7.63379 16.4035 7.6278C16.4099 7.63779 16.4162 7.64777 16.4226 7.65576C16.4375 7.65576 16.48 7.73166 16.4928 7.7736C16.7457 8.25695 16.6862 8.87212 16.548 9.37943C16.5289 9.57916 16.8583 8.63644 16.8583 8.38478C16.8583 8.27492 16.8732 8.16308 16.8944 8.09317C16.9008 8.03924 16.9093 7.9993 16.9157 7.9993C16.9221 7.9993 16.9327 8.00928 16.9433 8.02327C16.9752 8.02127 17.0156 8.08119 17.0645 8.24896C17.2409 8.89009 17.1027 9.57117 16.8519 10.1764C16.8881 10.1404 16.9178 10.0985 16.9476 10.0545C16.9667 10.0246 16.9858 9.9946 17.0028 9.96264C17.1644 9.67304 17.2409 9.29954 17.3663 9.05187C17.379 9.01592 17.3875 8.98397 17.396 8.96399L17.4364 8.84815L17.4662 8.90008C17.4662 8.90008 17.4704 8.89409 17.4725 8.89009C17.7658 9.49727 17.4513 10.1963 17.0517 10.6937C17.0921 10.6737 17.1325 10.6457 17.1686 10.6138C17.1707 10.6118 17.1729 10.6098 17.175 10.6078C17.2132 10.5678 17.2558 10.5239 17.2983 10.472C17.4598 10.2622 17.5852 9.98461 17.7169 9.86078C17.7637 9.78688 17.7998 9.74094 17.8126 9.74694C17.819 9.75093 17.8232 9.76891 17.8253 9.79687C17.8296 9.79687 17.8317 9.79487 17.836 9.79487C17.9082 10.412 17.4768 10.9653 16.971 11.3108C17.0538 11.2869 17.1304 11.2429 17.2069 11.191C17.2345 11.171 17.2664 11.149 17.2961 11.1251C17.4959 10.9673 17.6744 10.7616 17.8445 10.6617C17.8976 10.6178 17.9337 10.5918 17.938 10.5958C17.9422 10.5998 17.9444 10.6078 17.9465 10.6178C17.9486 10.6178 17.9529 10.6158 17.955 10.6138C17.9911 11.0851 17.5384 11.4906 17.1962 11.6923C17.3705 11.6643 17.7106 11.4007 17.8848 11.3288C17.9444 11.2908 17.9911 11.2649 17.9954 11.2689C18.0039 11.2729 17.9996 11.3008 17.9911 11.3408C17.9996 11.3787 17.9762 11.4546 17.9019 11.5944L17.904 11.5964Z" fill="#F2C230"/>
</svg>
