<svg width="24" height="24" viewBox="0 0 24 24" fill="none" xmlns="http://www.w3.org/2000/svg">
<path d="M12 24C18.6274 24 24 18.6274 24 12C24 5.37258 18.6274 0 12 0C5.37258 0 0 5.37258 0 12C0 18.6274 5.37258 24 12 24Z" fill="#D80027"/>
<path d="M18.7825 8.90743H14.436C14.7043 8.62646 14.8694 8.24607 14.8694 7.82687C14.8694 6.96245 14.1686 6.26167 13.3042 6.26167C12.7596 6.26167 12.2802 6.53992 11.9999 6.96184C11.7195 6.53992 11.2401 6.26167 10.6955 6.26167C9.83111 6.26167 9.13033 6.96245 9.13033 7.82687C9.13033 8.24607 9.29547 8.62651 9.56378 8.90743H5.21729C5.21729 10.06 6.22122 10.9944 7.37373 10.9944H7.30417C7.30417 12.147 8.23853 13.0814 9.39118 13.0814C9.39118 13.4547 9.48957 13.8047 9.66132 14.1077L7.93023 15.8388L9.25839 17.1669L11.1424 15.2829C11.2162 15.31 11.2925 15.3317 11.3714 15.3464L10.2329 17.9168L11.9999 19.8269L13.7668 17.9167L12.6284 15.3463C12.7073 15.3316 12.7836 15.3099 12.8574 15.2828L14.7414 17.1668L16.0695 15.8387L14.3384 14.1075C14.5102 13.8046 14.6086 13.4545 14.6086 13.0812C15.7612 13.0812 16.6955 12.1469 16.6955 10.9942H16.626C17.7785 10.9943 18.7825 10.06 18.7825 8.90743Z" fill="black"/>
</svg>
