<svg id="ico-pt" xmlns="http://www.w3.org/2000/svg" width="50" height="50" viewBox="0 0 50 50">
  <path id="Trazado_7294" data-name="Trazado 7294" d="M0,39.368A25.009,25.009,0,0,0,16.3,62.813l2.174-23.445L16.3,15.923A25.009,25.009,0,0,0,0,39.368Z" transform="translate(0 -14.368)" fill="#6da544"/>
  <path id="Trazado_7295" data-name="Trazado 7295" d="M200.651,25a25.014,25.014,0,0,0-33.7-23.445v46.89A25.014,25.014,0,0,0,200.651,25Z" transform="translate(-150.651)" fill="#d80027"/>
  <circle id="Elipse_83" data-name="Elipse 83" cx="8.696" cy="8.696" r="8.696" transform="translate(7.609 16.304)" fill="#ffda44"/>
  <path id="Trazado_7296" data-name="Trazado 7296" d="M116.87,211.478v5.435a4.891,4.891,0,1,0,9.783,0v-5.435Z" transform="translate(-105.457 -190.826)" fill="#d80027"/>
  <path id="Trazado_7297" data-name="Trazado 7297" d="M151.891,248.674a1.632,1.632,0,0,1-1.63-1.63V244.87h3.261v2.174A1.632,1.632,0,0,1,151.891,248.674Z" transform="translate(-135.587 -220.957)" fill="#f0f0f0"/>
</svg>
