<svg width="20" height="20" viewBox="0 0 20 20" fill="none" xmlns="http://www.w3.org/2000/svg">
<g clip-path="url(#clip0_33_1596)">
<path d="M17.5 4.375H10V6.25H18.5938C18.3125 5.59375 17.9375 4.9375 17.5 4.375Z" fill="#428BC1"/>
<path d="M10 4.375H17.5C16.9688 3.65625 16.3438 3.03125 15.625 2.5H10V4.375Z" fill="#F9F9F9"/>
<path d="M18.5937 6.25H10V8.125H19.1875C19.0625 7.46875 18.8437 6.84375 18.5937 6.25Z" fill="#F9F9F9"/>
<path d="M1.40625 13.75H18.5937C18.8437 13.1562 19.0625 12.5312 19.1875 11.875H0.8125C0.9375 12.5312 1.15625 13.1562 1.40625 13.75Z" fill="#428BC1"/>
<path d="M2.5 15.625H17.5C17.9375 15.0625 18.3125 14.4062 18.5938 13.75H1.40625C1.6875 14.4062 2.0625 15.0625 2.5 15.625Z" fill="#F9F9F9"/>
<path d="M2.5 15.625C3.03125 16.3438 3.65625 16.9688 4.375 17.5H15.625C16.3438 16.9688 16.9688 16.3438 17.5 15.625H2.5Z" fill="#428BC1"/>
<path d="M4.375 17.5C5.9375 18.6875 7.875 19.375 10 19.375C12.125 19.375 14.0625 18.6875 15.625 17.5H4.375Z" fill="#F9F9F9"/>
<path d="M6.25 10V6.25H10V4.375H6.25V1.40625C5.59375 1.6875 4.9375 2.0625 4.375 2.5V4.375H2.5C2.0625 4.9375 1.6875 5.59375 1.40625 6.25H4.375V10H0.625C0.625 10.6562 0.6875 11.2812 0.8125 11.875H19.1875C19.3125 11.2812 19.375 10.6562 19.375 10H6.25Z" fill="#F9F9F9"/>
<path d="M19.1875 8.125H10V6.25H6.25V10H19.375C19.375 9.34375 19.3125 8.71875 19.1875 8.125Z" fill="#428BC1"/>
<path d="M10 0.625C8.65625 0.625 7.40625 0.90625 6.25 1.40625V4.375H10V2.5H15.625C14.0625 1.3125 12.125 0.625 10 0.625Z" fill="#428BC1"/>
<path d="M4.375 4.375V2.5C3.65625 3.03125 3.03125 3.65625 2.5 4.375H4.375Z" fill="#428BC1"/>
<path d="M1.40625 6.25C0.90625 7.40625 0.625 8.65625 0.625 10H4.375V6.25H1.40625Z" fill="#428BC1"/>
</g>
<defs>
<clipPath id="clip0_33_1596">
<rect width="20" height="20" fill="white"/>
</clipPath>
</defs>
</svg>
